{"title":"God Of Thunder Dark Universe 2015 Movies HDCam XviD New ~ â˜»rDXâ˜»","uid":12069228,"size":740447481,"categoryP":"video","categoryS":"movies","magnet":"?xt=urn:btih:8319415f0af59e233df0045ed63ef82898d59a8c&amp;dn=God+Of+Thunder+Dark+Universe+2015+Movies+HDCam+XviD+New+%7E+%E2%98%BBrDX%E2%98%BB&amp;tr=udp%3A%2F%2Ftracker.openbittorrent.com%3A80&amp;tr=udp%3A%2F%2Fopen.demonii.com%3A1337&amp;tr=udp%3A%2F%2Ftracker.coppersurfer.tk%3A6969&amp;tr=udp%3A%2F%2Fexodus.desync.com%3A6969","seeders":0,"leechers":1,"uploader":"basicssom","files":2,"time":1435469898,"description":"----------------------------------------------------------------\nGod Of Thunder Dark Universe 2015 English Movies HDCam XviD AAC New Source with Sample ~ â˜»rDXâ˜»\n\nSCREEN SHOTS &amp; POSTER:\n &lt;a href=&quot;\nhttp://imagehosting4u.com/2015/6/GodOfThunderDarkUniverse/11.html&quot; rel=&quot;nofollow&quot; target=&quot;_NEW&quot;&gt;\nhttp://imagehosting4u.com/2015/6/GodOfThunderDarkUniverse/11.html&lt;/a&gt; &lt;a href=&quot;\nhttp://imagehosting4u.com/2015/6/GodOfThunderDarkUniverse/1.html&quot; rel=&quot;nofollow&quot; target=&quot;_NEW&quot;&gt;\nhttp://imagehosting4u.com/2015/6/GodOfThunderDarkUniverse/1.html&lt;/a&gt; &lt;a href=&quot;\nhttp://imagehosting4u.com/2015/6/GodOfThunderDarkUniverse/2.html&quot; rel=&quot;nofollow&quot; target=&quot;_NEW&quot;&gt;\nhttp://imagehosting4u.com/2015/6/GodOfThunderDarkUniverse/2.html&lt;/a&gt; &lt;a href=&quot;\nhttp://imagehosting4u.com/2015/6/GodOfThunderDarkUniverse/3.html&quot; rel=&quot;nofollow&quot; target=&quot;_NEW&quot;&gt;\nhttp://imagehosting4u.com/2015/6/GodOfThunderDarkUniverse/3.html&lt;/a&gt; &lt;a href=&quot;\nhttp://imagehosting4u.com/2015/6/GodOfThunderDarkUniverse/4.html&quot; rel=&quot;nofollow&quot; target=&quot;_NEW&quot;&gt;\nhttp://imagehosting4u.com/2015/6/GodOfThunderDarkUniverse/4.html&lt;/a&gt; &lt;a href=&quot;\nhttp://imagehosting4u.com/2015/6/GodOfThunderDarkUniverse/5.html&quot; rel=&quot;nofollow&quot; target=&quot;_NEW&quot;&gt;\nhttp://imagehosting4u.com/2015/6/GodOfThunderDarkUniverse/5.html&lt;/a&gt; &lt;a href=&quot;\nhttp://imagehosting4u.com/2015/6/GodOfThunderDarkUniverse/6.html&quot; rel=&quot;nofollow&quot; target=&quot;_NEW&quot;&gt;\nhttp://imagehosting4u.com/2015/6/GodOfThunderDarkUniverse/6.html&lt;/a&gt; &lt;a href=&quot;\nhttp://imagehosting4u.com/2015/6/GodOfThunderDarkUniverse/7.html&quot; rel=&quot;nofollow&quot; target=&quot;_NEW&quot;&gt;\nhttp://imagehosting4u.com/2015/6/GodOfThunderDarkUniverse/7.html&lt;/a&gt; &lt;a href=&quot;\nhttp://imagehosting4u.com/2015/6/GodOfThunderDarkUniverse/8.html&quot; rel=&quot;nofollow&quot; target=&quot;_NEW&quot;&gt;\nhttp://imagehosting4u.com/2015/6/GodOfThunderDarkUniverse/8.html&lt;/a&gt; &lt;a href=&quot;\nhttp://imagehosting4u.com/2015/6/GodOfThunderDarkUniverse/9.html&quot; rel=&quot;nofollow&quot; target=&quot;_NEW&quot;&gt;\nhttp://imagehosting4u.com/2015/6/GodOfThunderDarkUniverse/9.html&lt;/a&gt; &lt;a href=&quot;\nhttp://imagehosting4u.com/2015/6/GodOfThunderDarkUniverse/10.html&quot; rel=&quot;nofollow&quot; target=&quot;_NEW&quot;&gt;\nhttp://imagehosting4u.com/2015/6/GodOfThunderDarkUniverse/10.html&lt;/a&gt;\n\nFormat                                   : Matroska\nFormat version                           : Version 4 / Version 2\nFile size                                : 697 MiB\nDuration                                 : 1h 31mn\nOverall bit rate                         : 1 069 Kbps\nMovie name                               : God Of Thunder Dark Universe 2015 English Movies HDCam XviD AAC New Source ~ rDX ~\n\nVideo\nID                                       : 1\nFormat                                   : MPEG-4 Visual\nFormat profile                           : Simple@L0\nFormat settings, BVOP                    : No\nFormat settings, QPel                    : No\nFormat settings, GMC                     : No warppoints\nFormat settings, Matrix                  : Default (H.263)\nCodec ID                                 : V_MS/VFW/FOURCC / XVID\nCodec ID/Hint                            : XviD\nDuration                                 : 1h 31mn\nBit rate                                 : 920 Kbps\nWidth                                    : 640 pixels\nHeight                                   : 280 pixels\nDisplay aspect ratio                     : 2.25:1\nFrame rate mode                          : Constant\nFrame rate                               : 29.970 fps\nColor space                              : YUV\nChroma subsampling                       : 4:2:0\nBit depth                                : 8 bits\nScan type                                : Progressive\nCompression mode                         : Lossy\nBits/(Pixel*Frame)                       : 0.171\nStream size                              : 600 MiB (86%)\nTitle                                    : ~ rDX ~\nWriting library                          : XviD 1.0.2 (UTC 2004-08-29)\nDefault                                  : Yes\nForced                                   : No\n\nAudio\nID                                       : 2\nFormat                                   : MPEG Audio\nFormat version                           : Version 1\nFormat profile                           : Layer 3\nMode                                     : Joint stereo\nMode extension                           : MS Stereo\nCodec ID                                 : A_MPEG/L3\nCodec ID/Hint                            : MP3\nDuration                                 : 1h 31mn\nBit rate mode                            : Constant\nBit rate                                 : 128 Kbps\nChannel(s)                               : 2 channels\nSampling rate                            : 44.1 KHz\nCompression mode                         : Lossy\nStream size                              : 83.4 MiB (12%)\nTitle                                    : ~ rDX ~\nWriting library                          : LAME3.99.5\nDefault                                  : Yes\nForced                                   : No","torrent":{"xt":"urn:btih:8319415f0af59e233df0045ed63ef82898d59a8c","amp;dn":"God+Of+Thunder+Dark+Universe+2015+Movies+HDCam+XviD+New+%7E+%E2%98%BBrDX%E2%98%BB","amp;tr":["udp%3A%2F%2Ftracker.openbittorrent.com%3A80","udp%3A%2F%2Fopen.demonii.com%3A1337","udp%3A%2F%2Ftracker.coppersurfer.tk%3A6969","udp%3A%2F%2Fexodus.desync.com%3A6969"],"infoHash":"8319415f0af59e233df0045ed63ef82898d59a8c","infoHashBuffer":{"type":"Buffer","data":[131,25,65,95,10,245,158,35,61,240,4,94,214,62,248,40,152,213,154,140]},"announce":[],"urlList":[]}}